<svg aria-hidden="true" style="position: absolute; width: 0; height: 0; overflow: hidden;" version="1.1" xmlns="http://www.w3.org/2000/svg" xmlns:xlink="http://www.w3.org/1999/xlink">
<defs>
<symbol id="icon-account_circle" viewBox="0 0 32 32">
<path fill="#9ec5fe" style="fill: var(--color1, #9ec5fe)" d="M16 2.667c7.36 0 13.333 5.973 13.333 13.333s-5.973 13.333-13.333 13.333c-7.36 0-13.333-5.973-13.333-13.333s5.973-13.333 13.333-13.333zM9.427 24.373c1.813 1.44 4.093 2.293 6.573 2.293s4.76-0.853 6.573-2.293c-0.56-1.2-4.067-2.373-6.573-2.373s-6 1.173-6.573 2.373zM16 19.333c1.947 0 6.573 0.787 8.48 3.107 1.36-1.787 2.187-4.013 2.187-6.44 0-5.88-4.787-10.667-10.667-10.667s-10.667 4.787-10.667 10.667c0 2.427 0.827 4.653 2.187 6.44 1.907-2.32 6.533-3.107 8.48-3.107zM16 8c2.587 0 4.667 2.080 4.667 4.667s-2.080 4.667-4.667 4.667c-2.587 0-4.667-2.080-4.667-4.667s2.080-4.667 4.667-4.667zM14 12.667c0 1.107 0.893 2 2 2s2-0.893 2-2c0-1.107-0.893-2-2-2s-2 0.893-2 2z"></path>
</symbol>
<symbol id="icon-add" viewBox="0 0 32 32">
<path fill="#adb5bd" style="fill: var(--color2, #adb5bd)" d="M25.333 17.333h-8v8h-2.667v-8h-8v-2.667h8v-8h2.667v8h8v2.667z"></path>
</symbol>
<symbol id="icon-arrow-left" viewBox="0 0 32 32">
<path fill="#2c7dfa" style="fill: var(--color3, #2c7dfa)" d="M9.65 16.892l10.172 10.171c0.235 0.236 0.549 0.365 0.884 0.365s0.649-0.13 0.884-0.365l0.749-0.749c0.487-0.488 0.487-1.281 0-1.768l-8.541-8.542 8.551-8.551c0.235-0.235 0.365-0.549 0.365-0.884s-0.13-0.649-0.365-0.885l-0.749-0.749c-0.235-0.235-0.549-0.365-0.884-0.365s-0.649 0.13-0.884 0.365l-10.181 10.181c-0.236 0.236-0.365 0.552-0.365 0.887-0.001 0.337 0.129 0.652 0.365 0.888z"></path>
</symbol>
<symbol id="icon-arrow-right" viewBox="0 0 136 32">
<path fill="#adb5bd" style="fill: var(--color2, #adb5bd)" d="M133.414 17.414c0.781-0.781 0.781-2.047 0-2.828l-12.728-12.728c-0.781-0.781-2.048-0.781-2.828 0s-0.781 2.047 0 2.828l11.314 11.314-11.314 11.314c-0.781 0.781-0.781 2.047 0 2.828s2.047 0.781 2.828 0l12.728-12.728zM24 18h108v-4h-108v4z"></path>
<path fill="#adb5bd" style="fill: var(--color2, #adb5bd)" d="M12 4c6.627 0 12 5.373 12 12s-5.373 12-12 12c-6.627 0-12-5.373-12-12s5.373-12 12-12z"></path>
</symbol>
<symbol id="icon-contact_mail" viewBox="0 0 32 32">
<path fill="#9ec5fe" style="fill: var(--color1, #9ec5fe)" d="M2.667 4h26.667c1.467 0 2.667 1.2 2.667 2.667l-0.013 18.667c0 1.467-1.187 2.667-2.653 2.667h-26.667c-1.467 0-2.667-1.2-2.667-2.667v-18.667c0-1.467 1.2-2.667 2.667-2.667zM2.667 25.333h26.667v-18.667h-26.667v18.667zM28 8h-9.333v6.667h9.333v-6.667zM23.333 13l3.333-2.333v-1.333l-3.333 2.333-3.333-2.333v1.333l3.333 2.333zM12 16c2.2 0 4-1.8 4-4s-1.8-4-4-4c-2.2 0-4 1.8-4 4s1.8 4 4 4zM13.333 12c0-0.733-0.6-1.333-1.333-1.333s-1.333 0.6-1.333 1.333c0 0.733 0.6 1.333 1.333 1.333s1.333-0.6 1.333-1.333zM20 22.12c0-3.333-5.293-4.773-8-4.773s-8 1.44-8 4.773v1.88h16v-1.88zM12 20c-1.733 0-3.707 0.667-4.693 1.333h9.387c-1-0.68-2.96-1.333-4.693-1.333z"></path>
</symbol>
<symbol id="icon-copy" viewBox="0 0 32 32">
<path fill="#6f42c1" style="fill: var(--color4, #6f42c1)" d="M22 1.333v2.667h-16v18.667h-2.667v-18.667c0-1.467 1.2-2.667 2.667-2.667h16zM26 6.667c1.467 0 2.667 1.2 2.667 2.667v18.667c0 1.467-1.2 2.667-2.667 2.667h-14.667c-1.467 0-2.667-1.2-2.667-2.667v-18.667c0-1.467 1.2-2.667 2.667-2.667h14.667zM11.333 28h14.667v-18.667h-14.667v18.667z"></path>
</symbol>
<symbol id="icon-create" viewBox="0 0 32 32">
<path fill="#6f42c1" style="fill: var(--color4, #6f42c1)" d="M24.492 4.387l3.12 3.12c0.52 0.52 0.52 1.36 0 1.88l-2.44 2.44-5-5 2.44-2.44c0.253-0.253 0.587-0.387 0.933-0.387s0.68 0.12 0.947 0.387zM3.998 23v5h5l14.747-14.747-5-5-14.747 14.747zM7.892 25.333h-1.227v-1.227l12.080-12.080 1.227 1.227-12.080 12.080z"></path>
</symbol>
<symbol id="icon-del" viewBox="0 0 32 32">
<path fill="#adb5bd" style="fill: var(--color2, #adb5bd)" d="M25.333 17.333h-18.667v-2.667h18.667v2.667z"></path>
</symbol>
<symbol id="icon-delete" viewBox="0 0 32 32">
<path fill="#6f42c1" style="fill: var(--color4, #6f42c1)" d="M19.333 4l1.333 1.333h4.667v2.667h-18.667v-2.667h4.667l1.333-1.333h6.667zM21.333 12h-10.667v13.333h10.667v-13.333zM8 9.333h16v16c0 1.467-1.2 2.667-2.667 2.667h-10.667c-1.467 0-2.667-1.2-2.667-2.667v-16z"></path>
</symbol>
<symbol id="icon-home" viewBox="0 0 32 32">
<path fill="#9ec5fe" style="fill: var(--color1, #9ec5fe)" d="M6.667 16.667h-4l13.333-12 13.333 12h-4v10.667h-8v-8h-2.667v8h-8v-10.667zM22.667 14.253l-6.667-6-6.667 6v10.413h2.667v-8h8v8h2.667v-10.413z"></path>
</symbol>
<symbol id="icon-language" viewBox="0 0 32 32">
<path fill="#adb5bd" style="fill: var(--color2, #adb5bd)" d="M2.667 16c0-7.36 5.96-13.333 13.32-13.333 7.373 0 13.347 5.973 13.347 13.333s-5.973 13.333-13.347 13.333c-7.36 0-13.32-5.973-13.32-13.333zM21.293 10.667h3.933c-1.28-2.2-3.32-3.907-5.773-4.747 0.8 1.48 1.413 3.080 1.84 4.747zM16 5.387c1.107 1.6 1.973 3.373 2.547 5.28h-5.093c0.573-1.907 1.44-3.68 2.547-5.28zM5.333 16c0 0.92 0.133 1.813 0.347 2.667h4.507c-0.107-0.88-0.187-1.76-0.187-2.667s0.080-1.787 0.187-2.667h-4.507c-0.213 0.853-0.347 1.747-0.347 2.667zM6.773 21.333h3.933c0.427 1.667 1.040 3.267 1.84 4.747-2.453-0.84-4.493-2.533-5.773-4.747zM6.773 10.667h3.933c0.427-1.667 1.040-3.267 1.84-4.747-2.453 0.84-4.493 2.533-5.773 4.747zM16 26.613c-1.107-1.6-1.973-3.373-2.547-5.28h5.093c-0.573 1.907-1.44 3.68-2.547 5.28zM12.667 16c0 0.907 0.093 1.787 0.213 2.667h6.24c0.12-0.88 0.213-1.76 0.213-2.667s-0.093-1.8-0.213-2.667h-6.24c-0.12 0.867-0.213 1.76-0.213 2.667zM19.453 26.080c0.8-1.48 1.413-3.080 1.84-4.747h3.933c-1.28 2.2-3.32 3.907-5.773 4.747zM22 16c0 0.907-0.080 1.787-0.187 2.667h4.507c0.213-0.853 0.347-1.747 0.347-2.667s-0.133-1.813-0.347-2.667h-4.507c0.107 0.88 0.187 1.76 0.187 2.667z"></path>
</symbol>
<symbol id="icon-logo" viewBox="0 0 69 32">
<path fill="#fff" style="fill: var(--color5, #fff)" d="M60.643 0h-51.952c-4.8 0-8.691 3.891-8.691 8.691v7.35c0 4.8 3.891 8.691 8.691 8.691h51.952c4.8 0 8.691-3.891 8.691-8.691v-7.35c0-4.8-3.891-8.691-8.691-8.691z"></path>
<path fill="#cbd2d8" style="fill: var(--color6, #cbd2d8)" d="M8.686 12.929h-1.917v-8.515h1.917v8.515z"></path>
<path fill="#cbd2d8" style="fill: var(--color6, #cbd2d8)" d="M18.28 12.929h-1.935l-3.509-5.35c-0.155-0.228-0.298-0.464-0.428-0.707h-0.023c0.032 0.301 0.048 0.76 0.047 1.378v4.677h-1.811v-8.512h2.066l3.378 5.182c0.154 0.234 0.297 0.466 0.427 0.695h0.024c-0.041-0.389-0.056-0.78-0.047-1.17v-4.707h1.81v8.515z"></path>
<path fill="#cbd2d8" style="fill: var(--color6, #cbd2d8)" d="M20.228 12.929v-8.515h3.099c0.951 0 1.681 0.174 2.192 0.523 0.244 0.158 0.443 0.377 0.577 0.635s0.199 0.547 0.188 0.837c0.005 0.446-0.162 0.878-0.466 1.204-0.319 0.35-0.733 0.599-1.191 0.719v0.023c0.547 0.049 1.061 0.286 1.452 0.671 0.177 0.179 0.316 0.391 0.41 0.625s0.139 0.484 0.134 0.735c0 0.78-0.279 1.399-0.838 1.855s-1.32 0.685-2.285 0.686h-3.272zM22.145 5.827v2.022h0.843c0.336 0.019 0.668-0.082 0.935-0.287 0.113-0.098 0.203-0.22 0.262-0.357s0.086-0.287 0.079-0.436c0-0.624-0.467-0.937-1.402-0.938l-0.718-0.004zM22.145 9.271v2.245h1.039c0.442 0 0.79-0.103 1.041-0.31 0.125-0.101 0.224-0.23 0.289-0.377s0.097-0.306 0.090-0.466c0.006-0.153-0.024-0.306-0.088-0.445s-0.161-0.261-0.282-0.356c-0.248-0.193-0.593-0.29-1.037-0.291h-1.053z"></path>
<path fill="#cbd2d8" style="fill: var(--color6, #cbd2d8)" d="M31.625 13.078c-1.219 0-2.213-0.397-2.98-1.191s-1.151-1.828-1.151-3.102c0-1.348 0.39-2.437 1.169-3.266s1.812-1.245 3.099-1.247c1.214 0 2.197 0.398 2.947 1.194s1.126 1.845 1.126 3.146c0 1.338-0.389 2.417-1.167 3.237s-1.792 1.229-3.043 1.229zM31.708 5.922c-0.308-0.011-0.615 0.052-0.894 0.184s-0.522 0.329-0.71 0.574c-0.395 0.506-0.593 1.174-0.593 2.005s0.199 1.497 0.597 2c0.191 0.229 0.429 0.413 0.699 0.54s0.563 0.194 0.861 0.196c0.298 0.002 0.593-0.061 0.864-0.185s0.512-0.305 0.706-0.531c0.388-0.476 0.581-1.138 0.581-1.986 0-0.882-0.188-1.569-0.564-2.060-0.179-0.24-0.414-0.432-0.684-0.56s-0.567-0.189-0.866-0.177h0.003z"></path>
<path fill="#cbd2d8" style="fill: var(--color6, #cbd2d8)" d="M40.843 13.078c-1.22 0-2.214-0.397-2.982-1.191s-1.151-1.828-1.151-3.102c0-1.348 0.39-2.437 1.169-3.266s1.812-1.245 3.098-1.247c1.214 0 2.197 0.398 2.947 1.194s1.126 1.845 1.125 3.146c0 1.338-0.389 2.417-1.167 3.237s-1.791 1.229-3.040 1.229zM40.925 5.922c-0.308-0.011-0.615 0.052-0.893 0.184s-0.522 0.329-0.709 0.574c-0.396 0.506-0.594 1.174-0.594 2.005s0.198 1.498 0.594 2.001c0.191 0.229 0.429 0.413 0.699 0.54s0.563 0.194 0.861 0.196 0.593-0.061 0.864-0.185c0.271-0.124 0.512-0.305 0.706-0.531 0.388-0.476 0.582-1.138 0.581-1.986 0-0.882-0.188-1.569-0.564-2.060-0.179-0.239-0.412-0.431-0.681-0.559s-0.565-0.19-0.863-0.179z"></path>
<path fill="#cbd2d8" style="fill: var(--color6, #cbd2d8)" d="M46.074 12.602v-1.902c0.332 0.282 0.712 0.502 1.122 0.65 0.392 0.143 0.806 0.217 1.223 0.217 0.213 0.003 0.425-0.019 0.632-0.066 0.159-0.035 0.312-0.096 0.451-0.181 0.111-0.067 0.204-0.161 0.271-0.273 0.059-0.104 0.089-0.222 0.088-0.341 0.002-0.16-0.047-0.317-0.141-0.446-0.108-0.142-0.24-0.264-0.389-0.361-0.186-0.123-0.382-0.23-0.585-0.321-0.225-0.102-0.469-0.207-0.731-0.315-0.665-0.276-1.16-0.613-1.486-1.011-0.332-0.409-0.508-0.923-0.495-1.45-0.009-0.396 0.082-0.787 0.267-1.138 0.177-0.316 0.426-0.586 0.728-0.786 0.325-0.214 0.686-0.368 1.065-0.454 0.42-0.099 0.851-0.149 1.283-0.147 0.394-0.003 0.788 0.024 1.178 0.081 0.324 0.050 0.642 0.135 0.948 0.253v1.769c-0.147-0.101-0.303-0.188-0.466-0.26-0.168-0.076-0.342-0.138-0.519-0.187-0.175-0.049-0.353-0.085-0.532-0.11-0.167-0.023-0.336-0.035-0.506-0.035-0.199-0.002-0.398 0.019-0.593 0.062-0.159 0.034-0.311 0.093-0.451 0.176-0.115 0.066-0.213 0.158-0.286 0.269-0.067 0.106-0.103 0.229-0.101 0.354-0.001 0.135 0.039 0.267 0.114 0.379 0.087 0.125 0.195 0.233 0.32 0.32 0.16 0.114 0.329 0.213 0.506 0.297 0.199 0.098 0.423 0.198 0.671 0.301 0.316 0.129 0.623 0.281 0.918 0.454 0.256 0.148 0.491 0.331 0.698 0.543 0.192 0.199 0.343 0.434 0.445 0.691 0.242 0.688 0.2 1.444-0.115 2.102-0.176 0.318-0.428 0.587-0.733 0.784-0.33 0.208-0.695 0.354-1.078 0.431-0.427 0.087-0.861 0.13-1.297 0.126-0.447 0.002-0.894-0.038-1.333-0.119-0.378-0.067-0.744-0.187-1.088-0.356z"></path>
<path fill="#cbd2d8" style="fill: var(--color6, #cbd2d8)" d="M59.261 5.976h-2.429v6.952h-1.924v-6.952h-2.417v-1.562h6.77v1.562z"></path>
<path fill="#2c7dfa" style="fill: var(--color3, #2c7dfa)" d="M4.053 22.173l1.729 6.661 5.114-7.69-6.843 1.029z"></path>
<path fill="#cbd2d8" style="fill: var(--color6, #cbd2d8)" d="M61.636 21.144c1.028 0 1.862-0.834 1.862-1.862s-0.834-1.862-1.862-1.862c-1.028 0-1.862 0.833-1.862 1.862s0.833 1.862 1.862 1.862z"></path>
<path fill="#cbd2d8" style="fill: var(--color6, #cbd2d8)" d="M56.892 21.144c1.028 0 1.862-0.834 1.862-1.862s-0.834-1.862-1.862-1.862c-1.028 0-1.862 0.833-1.862 1.862s0.834 1.862 1.862 1.862z"></path>
<path fill="#cbd2d8" style="fill: var(--color6, #cbd2d8)" d="M52.15 21.144c1.028 0 1.862-0.834 1.862-1.862s-0.834-1.862-1.862-1.862c-1.028 0-1.862 0.833-1.862 1.862s0.834 1.862 1.862 1.862z"></path>
<path fill="#fff" style="fill: var(--color5, #fff)" d="M60.643 1.187h-51.952c-4.8 0-8.691 3.891-8.691 8.691v7.35c0 4.8 3.891 8.691 8.691 8.691h51.952c4.8 0 8.691-3.891 8.691-8.691v-7.35c0-4.8-3.891-8.691-8.691-8.691z"></path>
<path fill="#2c7dfa" style="fill: var(--color3, #2c7dfa)" d="M8.686 14.112h-1.917v-8.512h1.917v8.512z"></path>
<path fill="#2c7dfa" style="fill: var(--color3, #2c7dfa)" d="M18.28 14.112h-1.935l-3.509-5.35c-0.154-0.227-0.295-0.462-0.423-0.704h-0.023c0.032 0.301 0.047 0.758 0.047 1.378v4.676h-1.816v-8.512h2.066l3.378 5.182c0.154 0.233 0.297 0.464 0.427 0.694h0.024c-0.041-0.388-0.056-0.779-0.047-1.169v-4.707h1.81v8.512z"></path>
<path fill="#2c7dfa" style="fill: var(--color3, #2c7dfa)" d="M20.228 14.112v-8.512h3.099c0.951 0 1.681 0.174 2.192 0.523 0.244 0.158 0.443 0.377 0.577 0.635s0.199 0.547 0.188 0.837c0.005 0.446-0.162 0.878-0.466 1.204-0.319 0.35-0.733 0.599-1.191 0.719v0.024c0.547 0.047 1.061 0.285 1.452 0.671 0.177 0.178 0.316 0.391 0.41 0.624s0.139 0.483 0.134 0.735c0 0.78-0.279 1.399-0.838 1.855s-1.32 0.685-2.285 0.684h-3.272zM22.145 7.014v2.022h0.843c0.336 0.019 0.668-0.083 0.935-0.288 0.113-0.097 0.203-0.219 0.262-0.357s0.086-0.286 0.079-0.436c0-0.626-0.467-0.939-1.402-0.938l-0.718-0.004zM22.145 10.457v2.245h1.039c0.442 0 0.79-0.104 1.041-0.308 0.125-0.102 0.224-0.231 0.289-0.377s0.097-0.306 0.090-0.467c0.006-0.153-0.024-0.306-0.088-0.445s-0.161-0.261-0.282-0.356c-0.248-0.193-0.593-0.29-1.037-0.291h-1.053z"></path>
<path fill="#2c7dfa" style="fill: var(--color3, #2c7dfa)" d="M31.625 14.263c-1.219 0-2.213-0.397-2.98-1.191s-1.151-1.828-1.151-3.102c0-1.348 0.39-2.437 1.169-3.266s1.812-1.245 3.099-1.246c1.214 0 2.197 0.398 2.947 1.193s1.126 1.844 1.126 3.147c0 1.337-0.389 2.416-1.167 3.236s-1.792 1.229-3.043 1.229zM31.708 7.109c-0.309-0.011-0.615 0.052-0.894 0.184s-0.522 0.329-0.71 0.574c-0.395 0.506-0.593 1.173-0.593 2.003s0.199 1.496 0.597 1.999c0.183 0.236 0.42 0.426 0.69 0.554s0.567 0.191 0.866 0.182c0.3 0.012 0.599-0.047 0.872-0.171s0.514-0.311 0.702-0.544c0.388-0.478 0.581-1.14 0.581-1.987 0-0.882-0.188-1.569-0.564-2.060-0.179-0.239-0.414-0.431-0.684-0.56s-0.567-0.189-0.866-0.176h0.003z"></path>
<path fill="#2c7dfa" style="fill: var(--color3, #2c7dfa)" d="M40.843 14.263c-1.22 0-2.214-0.397-2.982-1.191s-1.151-1.828-1.151-3.102c0-1.348 0.39-2.437 1.169-3.266s1.812-1.245 3.098-1.246c1.214 0 2.197 0.398 2.947 1.193s1.126 1.844 1.125 3.147c0 1.337-0.389 2.416-1.167 3.236s-1.791 1.229-3.040 1.229zM40.925 7.109c-0.308-0.011-0.615 0.052-0.894 0.184s-0.522 0.329-0.709 0.574c-0.396 0.506-0.594 1.173-0.594 2.003s0.198 1.497 0.594 2.001c0.183 0.237 0.419 0.427 0.689 0.555s0.567 0.19 0.866 0.182c0.3 0.012 0.598-0.047 0.872-0.171s0.514-0.311 0.702-0.544c0.388-0.478 0.582-1.14 0.581-1.987 0-0.882-0.188-1.569-0.564-2.060-0.179-0.239-0.413-0.43-0.681-0.559s-0.565-0.189-0.863-0.178z"></path>
<path fill="#2c7dfa" style="fill: var(--color3, #2c7dfa)" d="M46.073 13.788v-1.896c0.333 0.282 0.713 0.502 1.122 0.651 0.392 0.142 0.806 0.215 1.223 0.216 0.213 0.003 0.425-0.019 0.632-0.066 0.159-0.035 0.312-0.096 0.451-0.181 0.111-0.067 0.204-0.161 0.271-0.273 0.059-0.104 0.089-0.222 0.088-0.341 0.002-0.16-0.047-0.316-0.141-0.445-0.108-0.143-0.24-0.265-0.389-0.363-0.186-0.123-0.382-0.23-0.585-0.321-0.225-0.102-0.469-0.207-0.731-0.315-0.665-0.276-1.16-0.613-1.486-1.011-0.334-0.41-0.51-0.927-0.495-1.456-0.010-0.396 0.082-0.787 0.267-1.138 0.176-0.317 0.426-0.587 0.728-0.787 0.325-0.213 0.686-0.367 1.065-0.454 0.42-0.099 0.851-0.148 1.283-0.145 0.394-0.003 0.788 0.023 1.178 0.080 0.324 0.050 0.642 0.135 0.948 0.253v1.769c-0.147-0.102-0.303-0.19-0.466-0.262-0.168-0.075-0.342-0.138-0.519-0.187-0.175-0.049-0.353-0.085-0.532-0.11-0.167-0.023-0.336-0.035-0.506-0.035-0.199-0.002-0.398 0.019-0.593 0.062-0.159 0.034-0.311 0.093-0.451 0.176-0.115 0.067-0.213 0.159-0.286 0.27-0.067 0.105-0.102 0.228-0.101 0.353-0.001 0.135 0.038 0.267 0.114 0.379 0.087 0.125 0.195 0.234 0.32 0.321 0.16 0.113 0.329 0.212 0.506 0.297 0.199 0.096 0.423 0.196 0.671 0.3 0.316 0.13 0.623 0.281 0.918 0.454 0.256 0.148 0.491 0.331 0.698 0.543 0.192 0.199 0.343 0.434 0.445 0.691 0.242 0.688 0.2 1.444-0.115 2.102-0.176 0.318-0.428 0.587-0.733 0.784-0.33 0.209-0.695 0.355-1.078 0.431-0.427 0.087-0.861 0.13-1.297 0.126-0.447 0.002-0.894-0.038-1.333-0.119-0.378-0.065-0.745-0.184-1.088-0.354z"></path>
<path fill="#2c7dfa" style="fill: var(--color3, #2c7dfa)" d="M59.261 7.161h-2.429v6.952h-1.924v-6.952h-2.417v-1.561h6.77v1.561z"></path>
<path fill="#fff" style="fill: var(--color5, #fff)" d="M4.053 23.359l1.729 6.661 5.114-7.692-6.843 1.031z"></path>
<path fill="#2c7dfa" style="fill: var(--color3, #2c7dfa)" d="M61.636 22.329c1.028 0 1.862-0.834 1.862-1.862s-0.834-1.862-1.862-1.862c-1.028 0-1.862 0.834-1.862 1.862s0.833 1.862 1.862 1.862z"></path>
<path fill="#2c7dfa" style="fill: var(--color3, #2c7dfa)" d="M56.892 22.329c1.028 0 1.862-0.834 1.862-1.862s-0.834-1.862-1.862-1.862c-1.028 0-1.862 0.834-1.862 1.862s0.834 1.862 1.862 1.862z"></path>
<path fill="#2c7dfa" style="fill: var(--color3, #2c7dfa)" d="M52.15 22.329c1.028 0 1.862-0.834 1.862-1.862s-0.834-1.862-1.862-1.862c-1.028 0-1.862 0.834-1.862 1.862s0.834 1.862 1.862 1.862z"></path>
<path fill="#3d8bfd" style="fill: var(--color7, #3d8bfd); stroke: var(--color5, #fff)" stroke="#fff" stroke-linejoin="miter" stroke-linecap="butt" stroke-miterlimit="4" stroke-width="0.6667" d="M18.667 19h21.333c3.498 0 6.333 2.836 6.333 6.333s-2.836 6.333-6.333 6.333h-21.333c-3.498 0-6.333-2.836-6.333-6.333s2.836-6.333 6.333-6.333z"></path>
<path fill="#fff" style="fill: var(--color5, #fff)" d="M19.355 22.416h2.472c0.464 0 0.827 0.131 1.088 0.392 0.267 0.261 0.4 0.611 0.4 1.048 0 0.208-0.029 0.387-0.088 0.536-0.059 0.144-0.133 0.264-0.224 0.36-0.091 0.091-0.195 0.16-0.312 0.208-0.117 0.043-0.232 0.069-0.344 0.080v0.048c0.112 0.005 0.235 0.032 0.368 0.080 0.139 0.048 0.267 0.125 0.384 0.232 0.117 0.101 0.216 0.235 0.296 0.4 0.080 0.16 0.12 0.357 0.12 0.592 0 0.224-0.037 0.435-0.112 0.632-0.069 0.197-0.168 0.368-0.296 0.512s-0.28 0.259-0.456 0.344c-0.176 0.080-0.368 0.12-0.576 0.12h-2.72v-5.584zM20.259 27.224h1.552c0.235 0 0.419-0.061 0.552-0.184s0.2-0.299 0.2-0.528v-0.272c0-0.229-0.067-0.405-0.2-0.528s-0.317-0.184-0.552-0.184h-1.552v1.696zM20.259 24.776h1.4c0.224 0 0.397-0.056 0.52-0.168 0.123-0.117 0.184-0.283 0.184-0.496v-0.256c0-0.213-0.061-0.376-0.184-0.488-0.123-0.117-0.296-0.176-0.52-0.176h-1.4v1.584zM25.028 28v-5.584h3.576v0.8h-2.672v1.552h2.424v0.8h-2.424v1.632h2.672v0.8h-3.576zM32.242 23.216v4.784h-0.904v-4.784h-1.664v-0.8h4.232v0.8h-1.664zM38.152 28l-0.504-1.512h-2.088l-0.488 1.512h-0.92l1.904-5.584h1.136l1.904 5.584h-0.944zM36.624 23.248h-0.040l-0.808 2.464h1.648l-0.8-2.464z"></path>
</symbol>
<symbol id="icon-menu" viewBox="0 0 32 32">
<path fill="#6f42c1" style="fill: var(--color4, #6f42c1)" d="M4 10.667v-2.667h24v2.667h-24zM4 17.333h24v-2.667h-24v2.667zM4 24h24v-2.667h-24v2.667z"></path>
</symbol>
<symbol id="icon-people" viewBox="0 0 32 32">
<path fill="#9ec5fe" style="fill: var(--color1, #9ec5fe)" d="M12 16c2.573 0 4.667-2.093 4.667-4.667s-2.093-4.667-4.667-4.667c-2.573 0-4.667 2.093-4.667 4.667s2.093 4.667 4.667 4.667zM2.667 23c0-3.107 6.213-4.667 9.333-4.667s9.333 1.56 9.333 4.667v2.333h-18.667v-2.333zM12 21c-2.387 0-5.093 0.893-6.213 1.667h12.427c-1.12-0.773-3.827-1.667-6.213-1.667zM14 11.333c0-1.107-0.893-2-2-2s-2 0.893-2 2c0 1.107 0.893 2 2 2s2-0.893 2-2zM21.387 18.413c1.547 1.12 2.613 2.613 2.613 4.587v2.333h5.333v-2.333c0-2.693-4.667-4.227-7.947-4.587zM24.667 11.333c0 2.573-2.093 4.667-4.667 4.667-0.72 0-1.387-0.173-2-0.467 0.84-1.187 1.333-2.64 1.333-4.2s-0.493-3.013-1.333-4.2c0.613-0.293 1.28-0.467 2-0.467 2.573 0 4.667 2.093 4.667 4.667z"></path>
</symbol>
<symbol id="icon-place" viewBox="0 0 32 32">
<path fill="#9ec5fe" style="fill: var(--color1, #9ec5fe)" d="M16 2.667c-5.16 0-9.333 4.173-9.333 9.333 0 7 9.333 17.333 9.333 17.333s9.333-10.333 9.333-17.333c0-5.16-4.173-9.333-9.333-9.333zM9.333 12c0-3.68 2.987-6.667 6.667-6.667s6.667 2.987 6.667 6.667c0 3.84-3.84 9.587-6.667 13.173-2.773-3.56-6.667-9.373-6.667-13.173zM12.667 12c0-1.841 1.492-3.333 3.333-3.333 1.191 0 2.291 0.635 2.887 1.667s0.596 2.302 0 3.333c-0.595 1.031-1.696 1.667-2.887 1.667-1.841 0-3.333-1.492-3.333-3.333z"></path>
</symbol>
<symbol id="icon-plus-icon" viewBox="0 0 32 32">
<path fill="#2c7dfa" style="fill: var(--color3, #2c7dfa)" d="M32 16c0 8.837-7.163 16-16 16s-16-7.163-16-16c0-8.837 7.163-16 16-16s16 7.163 16 16z"></path>
<path fill="#fff" style="fill: var(--color5, #fff)" d="M24.3 17.183h-7.111v7.111h-2.37v-7.111h-7.111v-2.37h7.111v-7.111h2.37v7.111h7.111v2.37z"></path>
</symbol>
<symbol id="icon-robot" viewBox="0 0 32 32">
<path fill="#9ec5fe" style="fill: var(--color1, #9ec5fe)" d="M31.733 16.628c-0.499-0.564-1.175-0.936-1.914-1.053s-1.495 0.029-2.14 0.412c-0.316-0.542-0.633-1.059-0.962-1.577s-0.609-1.33-1.217-1.724c-0.299-0.221-0.622-0.407-0.962-0.554-0.037-0.29-0.175-0.557-0.39-0.753s-0.49-0.309-0.779-0.319h-14.607c-0.292-0.004-0.575 0.099-0.799 0.289s-0.372 0.455-0.419 0.746c-0.34 0.148-0.663 0.334-0.962 0.554-0.596 0.394-0.816 1.133-1.217 1.724s-0.645 1.035-0.962 1.577c-0.646-0.382-1.403-0.526-2.142-0.406s-1.414 0.493-1.911 1.059c-0.116 0.119-0.208 0.26-0.268 0.416s-0.089 0.322-0.084 0.489c0.005 0.167 0.044 0.331 0.113 0.483s0.169 0.287 0.293 0.398 0.268 0.196 0.424 0.249c0.157 0.053 0.322 0.073 0.487 0.059s0.325-0.061 0.471-0.14c0.146-0.078 0.274-0.186 0.378-0.317 0.133-0.149 0.315-0.244 0.513-0.266s0.396 0.028 0.559 0.143c0 0 0 0.074 0 0.099 0.022 0.014 0.047 0.022 0.073 0.022s0.051-0.008 0.073-0.022c0.122 0.131 0.195 0.301 0.207 0.48 0.011 0.221-0.063 0.437-0.207 0.604-0.154 0.178-0.255 0.397-0.289 0.631s-0.002 0.473 0.095 0.689c0.096 0.216 0.252 0.399 0.448 0.527s0.425 0.197 0.659 0.197c0.17-0 0.338-0.037 0.493-0.107s0.294-0.172 0.408-0.3c0.5-0.564 0.792-1.284 0.827-2.040s-0.188-1.502-0.633-2.111c0.487-0.369 0.962-0.751 1.424-1.146 0.219-0.172 0.45-0.333 0.682-0.493v9.46c0 0.327 0.128 0.64 0.356 0.871s0.538 0.361 0.861 0.361h1.351v3.695h-1.022c-0.323 0-0.632 0.13-0.861 0.361s-0.356 0.544-0.356 0.871c0 0.327 0.128 0.64 0.356 0.871s0.538 0.361 0.861 0.361h4.589c0.323 0 0.632-0.13 0.861-0.361s0.357-0.544 0.357-0.871c0-0.327-0.128-0.64-0.357-0.871s-0.538-0.361-0.861-0.361h-1.035v-3.695h7.035v3.695h-1.132c-0.323 0-0.632 0.13-0.861 0.361s-0.356 0.544-0.356 0.871c0 0.327 0.128 0.64 0.356 0.871s0.538 0.361 0.861 0.361h4.492c0.323 0 0.632-0.13 0.861-0.361s0.356-0.544 0.356-0.871c0-0.327-0.128-0.64-0.356-0.871s-0.538-0.361-0.861-0.361h-1.023v-3.695h1.4c0.323 0 0.632-0.13 0.861-0.361s0.357-0.544 0.357-0.871v-9.386c0.231 0.16 0.462 0.32 0.682 0.493 0.462 0.394 0.937 0.776 1.424 1.146-0.445 0.609-0.668 1.354-0.633 2.111s0.328 1.477 0.827 2.040c0.114 0.128 0.253 0.23 0.408 0.3s0.323 0.106 0.493 0.107c0.234-0 0.463-0.069 0.659-0.197s0.352-0.312 0.448-0.527 0.129-0.455 0.095-0.689c-0.034-0.234-0.135-0.453-0.289-0.631-0.135-0.15-0.21-0.345-0.21-0.548s0.075-0.398 0.21-0.548c0.031 0.012 0.066 0.012 0.097 0 0.024-0.015 0.043-0.037 0.054-0.064s0.013-0.056 0.007-0.084c0.162-0.111 0.358-0.16 0.552-0.138s0.374 0.115 0.507 0.261c0.22 0.224 0.516 0.354 0.827 0.364s0.615-0.102 0.848-0.312c0.233-0.21 0.377-0.503 0.402-0.817s-0.069-0.627-0.264-0.873v0.012zM22.153 23.378h-12.172v-9.854h12.172v9.854z"></path>
<path fill="#9ec5fe" style="fill: var(--color1, #9ec5fe)" d="M8.691 9.928h14.753c0.323 0 0.632-0.13 0.861-0.361s0.357-0.544 0.357-0.871c0-2.306-0.905-4.518-2.517-6.149s-3.797-2.547-6.076-2.547c-2.279 0-4.465 0.916-6.077 2.547s-2.517 3.843-2.517 6.149c0 0.327 0.128 0.64 0.356 0.871s0.538 0.361 0.861 0.361zM16.067 2.439c1.43-0.011 2.82 0.482 3.931 1.394s1.873 2.188 2.155 3.607h-12.172c0.283-1.419 1.045-2.694 2.155-3.607s2.5-1.405 3.931-1.394z"></path>
</symbol>
<symbol id="icon-settings" viewBox="0 0 32 32">
<path fill="#9ec5fe" style="fill: var(--color1, #9ec5fe)" d="M26.003 16c0 0.453-0.040 0.88-0.093 1.307l2.813 2.2c0.253 0.2 0.32 0.56 0.16 0.853l-2.667 4.613c-0.12 0.213-0.347 0.333-0.573 0.333-0.080 0-0.16-0.013-0.24-0.040l-3.32-1.333c-0.693 0.52-1.44 0.973-2.253 1.307l-0.507 3.533c-0.040 0.32-0.32 0.56-0.653 0.56h-5.333c-0.333 0-0.613-0.24-0.653-0.56l-0.507-3.533c-0.813-0.333-1.56-0.773-2.253-1.307l-3.32 1.333c-0.067 0.027-0.147 0.040-0.227 0.040-0.24 0-0.467-0.12-0.587-0.333l-2.667-4.613c-0.16-0.293-0.093-0.653 0.16-0.853l2.813-2.2c-0.053-0.427-0.093-0.867-0.093-1.307s0.040-0.88 0.093-1.307l-2.813-2.2c-0.253-0.2-0.333-0.56-0.16-0.853l2.667-4.613c0.12-0.213 0.347-0.333 0.573-0.333 0.080 0 0.16 0.013 0.24 0.040l3.32 1.333c0.693-0.52 1.44-0.973 2.253-1.307l0.507-3.533c0.040-0.32 0.32-0.56 0.653-0.56h5.333c0.333 0 0.613 0.24 0.653 0.56l0.507 3.533c0.813 0.333 1.56 0.773 2.253 1.307l3.32-1.333c0.067-0.027 0.147-0.040 0.227-0.040 0.24 0 0.467 0.12 0.587 0.333l2.667 4.613c0.16 0.293 0.093 0.653-0.16 0.853l-2.813 2.2c0.053 0.427 0.093 0.853 0.093 1.307zM23.336 16c0-0.28-0.013-0.56-0.067-0.973l-0.187-1.507 1.187-0.933 1.427-1.133-0.933-1.613-1.693 0.68-1.413 0.573-1.213-0.933c-0.533-0.4-1.067-0.707-1.64-0.947l-1.413-0.573-0.213-1.507-0.253-1.8h-1.853l-0.267 1.8-0.213 1.507-1.413 0.573c-0.547 0.227-1.093 0.547-1.667 0.973l-1.2 0.907-1.387-0.56-1.693-0.68-0.933 1.613 1.44 1.12 1.187 0.933-0.187 1.507c-0.040 0.4-0.067 0.707-0.067 0.973s0.027 0.573 0.067 0.987l0.187 1.507-1.187 0.933-1.44 1.12 0.933 1.613 1.693-0.68 1.413-0.573 1.213 0.933c0.533 0.4 1.067 0.707 1.64 0.947l1.413 0.573 0.213 1.507 0.253 1.8h1.867l0.267-1.8 0.213-1.507 1.413-0.573c0.547-0.227 1.093-0.547 1.667-0.973l1.2-0.907 1.387 0.56 1.693 0.68 0.933-1.613-1.44-1.12-1.187-0.933 0.187-1.507c0.040-0.4 0.067-0.693 0.067-0.973zM16.003 10.667c2.947 0 5.333 2.387 5.333 5.333s-2.387 5.333-5.333 5.333c-2.947 0-5.333-2.387-5.333-5.333s2.387-5.333 5.333-5.333zM13.336 16c0 1.467 1.2 2.667 2.667 2.667s2.667-1.2 2.667-2.667c0-1.467-1.2-2.667-2.667-2.667s-2.667 1.2-2.667 2.667z"></path>
</symbol>
<symbol id="icon-smiley" viewBox="0 0 32 32">
<path fill="#adb5bd" style="fill: var(--color2, #adb5bd)" d="M32 16c0 8.836-7.164 16-16 16s-16-7.164-16-16c0-8.837 7.163-16 16-16s16 7.163 16 16zM30.020 16c0-7.732-6.268-14-14-14s-14 6.268-14 14 6.268 14 14 14c7.732 0 14-6.268 14-14zM21.5 10c-0.829 0-1.5 0.895-1.5 2s0.671 2 1.5 2c0.829 0 1.5-0.895 1.5-2s-0.671-2-1.5-2zM12.993 12c0 1.105-0.667 2-1.497 2s-1.497-0.895-1.497-2c0-1.105 0.67-2 1.497-2s1.497 0.895 1.497 2zM16.012 19.352c2.794 0 5.32-0.604 7.135-1.038 1.772-0.424 2.865-0.685 2.865-0.063 0 5.523-4.477 10-10 10s-10-4.477-10-10c0-0.623 1.093-0.361 2.865 0.063l0 0c1.814 0.434 4.341 1.038 7.135 1.038zM22.192 20.265c-1.397 0.366-3.538 0.926-6.192 0.926s-4.795-0.56-6.192-0.926c-1.161-0.304-1.808-0.473-1.808-0.074 0 3.828 5.816 4 8 4 2.452 0 8-0.173 8-4 0-0.399-0.647-0.23-1.808 0.074z"></path>
</symbol>
</defs>
</svg>
